<svg width="24" height="24" viewBox="0 0 24 24" fill="none" xmlns="http://www.w3.org/2000/svg">
<path d="M3.918 8.03701C3.09064 9.72281 2.81132 11.6252 3.11918 13.4777C3.42703 15.3302 4.30663 17.0399 5.63477 18.3675C6.96292 19.6951 8.67307 20.574 10.5257 20.8811C12.3783 21.1882 14.2805 20.9081 15.966 20.08C16.839 20.453 17.685 20.698 18.456 20.761C19.358 20.835 20.3 20.666 20.982 19.984C21.734 19.232 21.862 18.168 21.728 17.172C21.605 16.262 21.248 15.252 20.726 14.211C21.1094 12.6996 21.0935 11.1145 20.68 9.61106C20.2664 8.10763 19.4693 6.73743 18.3668 5.63475C17.2644 4.53207 15.8943 3.73474 14.3909 3.3209C12.8876 2.90705 11.3025 2.8909 9.791 3.27401C8.747 2.75001 7.736 2.39201 6.826 2.26801C5.829 2.13301 4.764 2.26101 4.011 3.01401C3.329 3.69701 3.16 4.64001 3.234 5.54201C3.298 6.31501 3.544 7.16201 3.918 8.03701ZM5.322 5.96601C5.27581 5.77297 5.24406 5.57676 5.227 5.37901C5.179 4.79301 5.317 4.53701 5.425 4.42901C5.545 4.30901 5.848 4.15401 6.557 4.25001C6.75567 4.27668 6.97 4.32201 7.2 4.38601C6.50479 4.82445 5.87292 5.35606 5.322 5.96601ZM19.612 16.803C19.6705 17.0122 19.7152 17.225 19.746 17.44C19.842 18.149 19.686 18.452 19.568 18.57C19.459 18.679 19.204 18.817 18.618 18.769C18.4223 18.752 18.2281 18.7206 18.037 18.675C18.6448 18.1256 19.1747 17.4958 19.612 16.803ZM15.882 17.826C14.205 16.948 12.257 15.503 10.375 13.621C8.495 11.741 7.051 9.79601 6.172 8.12101C7.07312 6.7688 8.41543 5.77108 9.97 5.29801C11.5781 4.80791 13.3089 4.91293 14.846 5.59387C16.3831 6.27481 17.6237 7.48619 18.3412 9.00656C19.0587 10.5269 19.205 12.2547 18.7535 13.8741C18.3019 15.4935 17.2827 16.8963 15.882 17.826ZM13.605 18.816C12.444 19.0898 11.2323 19.0624 10.0849 18.7363C8.93744 18.4102 7.89238 17.7964 7.04885 16.9529C6.20533 16.1095 5.59133 15.0645 5.26513 13.9171C4.93893 12.7698 4.91135 11.5581 5.185 10.397C6.149 11.913 7.435 13.509 8.961 15.035C10.489 16.563 12.087 17.851 13.605 18.816Z" fill="white"/>
</svg>
